:FULLY-SPECIFIED
:FORCE-ALL-JOINTS-BE-3DOF
:DEGREES
469
root 10.879 17.3965 29.4898 3.96302 4.2599 2.83725
lfemur -8.07355 2.51365 -28.456
ltibia 22.8202 0 0
lfoot -17.4931 3.76325 0
ltoes 3.6228 0 0
rfemur -32.9003 1.0356 16.0435
rtibia 49.7187 0 0
rfoot -19.692 -10.2674 0
rtoes -15.5613 0 0
lowerback -5.03122 -3.99369 -3.98758
upperback 0.334177 -5.14983 1.89943
thorax 3.69149 -2.65966 3.7568
lowerneck -22.6679 -2.84124 -10.1326
upperneck 24.3775 -3.29681 10.08
head 12.1411 -1.10636 4.99331
lclavicle -9.24349e-15 -2.38542e-15 0
lhumerus -12.1175 -19.6735 84.8937
lradius 27.2561 0 0
lwrist 5.09789 0 0
lhand -14.7232 -24.6897 0
lfingers 7.12502 0 0
lthumb 11.4317 4.97865 0
rclavicle -9.24349e-15 -2.38542e-15 0
rhumerus -45.3748 10.5343 -86.5254
rradius 38.7962 0 0
rwrist -19.863 0 0
rhand -25.1514 -40.542 0
rfingers 7.12502 0 0
rthumb 1.36532 -70.5174 0
470
root 10.8839 17.394 29.6153 3.96349 4.30157 2.87084
lfemur -7.07996 2.45779 -28.4556
ltibia 21.8798 -0 0
lfoot -17.4971 3.78832 -4.3385e-06
ltoes 3.82007 -0 0
rfemur -33.3313 1.34261 15.8655
rtibia 48.1881 -0 0
rfoot -19.7003 -10.1477 -4.34342e-05
rtoes -15.7219 0 0
lowerback -5.03904 -4.02953 -3.9309
upperback 0.344566 -5.19989 1.87553
thorax 3.70385 -2.6835 3.69457
lowerneck -22.6423 -2.83025 -10.1
upperneck 24.4203 -3.28969 10.0491
head 12.1506 -1.10503 4.97829
lclavicle -6.76696e-15 -2.38542e-15 0
lhumerus -11.7211 -19.8519 84.7351
lradius 27.6151 -0 0
lwrist 5.39833 0 0
lhand -14.8935 -24.7762 0.000642388
lfingers 7.12502 0 0
lthumb 11.2675 4.90087 0.0005574
rclavicle -6.76696e-15 -2.38542e-15 0
rhumerus -45.6281 10.3943 -86.4798
rradius 38.8469 -0 0
rwrist -19.9885 0 0
rhand -25.9509 -38.7928 -0.0611644
rfingers 7.12502 0 0
rthumb 0.593168 -68.7647 -0.059189
471
root 10.8887 17.3915 29.7408 3.96399 4.34323 2.90442
lfemur -6.08642 2.40192 -28.4562
ltibia 20.9395 -0 0
lfoot -17.501 3.81338 -6.9416e-06
ltoes 4.01733 -0 0
rfemur -33.7632 1.64828 15.6851
rtibia 46.6574 -0 0
rfoot -19.7086 -10.028 -6.94947e-05
rtoes -15.8825 0 0
lowerback -5.0469 -4.06536 -3.8742
upperback 0.354977 -5.24994 1.85161
thorax 3.71623 -2.70732 3.63233
lowerneck -22.6166 -2.81927 -10.0674
upperneck 24.4632 -3.28254 10.0181
head 12.1601 -1.1037 4.96327
lclavicle -4.29044e-15 -2.38542e-15 0
lhumerus -11.3237 -20.0293 84.575
lradius 27.974 -0 0
lwrist 5.69877 0 0
lhand -15.0637 -24.8626 0.00102782
lfingers 7.12502 0 0
lthumb 11.1032 4.82308 0.000891842
rclavicle -4.29044e-15 -2.38542e-15 0
rhumerus -45.8815 10.2546 -86.4336
rradius 38.8975 -0 0
rwrist -20.114 0 0
rhand -26.7519 -37.0429 -0.0978906
rfingers 7.12502 0 0
rthumb -0.180433 -67.0114 -0.0947289
472
root 10.8936 17.389 29.8663 3.96451 4.3849 2.93801
lfemur -5.09292 2.34608 -28.4577
ltibia 19.9992 -0 0
lfoot -17.505 3.83845 -7.8093e-06
ltoes 4.2146 -0 0
rfemur -34.1962 1.95257 15.5024
rtibia 45.1267 -0 0
rfoot -19.7169 -9.90832 -7.81816e-05
rtoes -16.0431 0 0
lowerback -5.05479 -4.10119 -3.8175
upperback 0.36541 -5.29999 1.82768
thorax 3.72864 -2.73114 3.57008
lowerneck -22.591 -2.80831 -10.0348
upperneck 24.506 -3.27537 9.98721
head 12.1696 -1.10237 4.94824
lclavicle -1.81391e-15 -2.38542e-15 0
lhumerus -10.9254 -20.2056 84.4134
lradius 28.333 -0 0
lwrist 5.99921 0 0
lhand -15.234 -24.9491 0.0011563
lfingers 7.12502 0 0
lthumb 10.939 4.7453 0.00100332
rclavicle -1.81391e-15 -2.38542e-15 0
rhumerus -46.1348 10.115 -86.3867
rradius 38.9482 -0 0
rwrist -20.2395 0 0
rhand -27.5537 -35.2927 -0.110137
rfingers 7.12502 0 0
rthumb -0.95476 -65.2577 -0.10658
473
root 10.8985 17.3866 29.9918 3.96506 4.42656 2.97161
lfemur -4.09945 2.29027 -28.4603
ltibia 19.0588 -0 0
lfoot -17.509 3.86352 -6.9416e-06
ltoes 4.41186 -0 0
rfemur -34.6303 2.25548 15.3174
rtibia 43.5961 -0 0
rfoot -19.7253 -9.78863 -6.94947e-05
rtoes -16.2037 0 0
lowerback -5.06272 -4.137 -3.7608
upperback 0.375864 -5.35003 1.80375
thorax 3.74107 -2.75493 3.50783
lowerneck -22.5653 -2.79737 -10.0021
upperneck 24.5488 -3.26818 9.9563
head 12.179 -1.10104 4.93322
lclavicle 6.62617e-16 -2.38542e-15 0
lhumerus -10.526 -20.3809 84.2503
lradius 28.692 -0 0
lwrist 6.29965 0 0
lhand -15.4043 -25.0356 0.00102782
lfingers 7.12502 0 0
lthumb 10.7748 4.66752 0.000891842
rclavicle 6.62617e-16 -2.38542e-15 0
rhumerus -46.3882 9.97569 -86.3393
rradius 38.9989 -0 0
rwrist -20.3649 0 0
rhand -28.3554 -33.5425 -0.0978906
rfingers 7.12502 0 0
rthumb -1.72909 -63.504 -0.0947289
474
root 10.9033 17.3841 30.1173 3.96563 4.46823 3.0052
lfemur -3.10602 2.23452 -28.4637
ltibia 18.1184 -0 0
lfoot -17.5129 3.88858 -4.3385e-06
ltoes 4.60913 -0 0
rfemur -35.0654 2.55697 15.13
rtibia 42.0655 -0 0
rfoot -19.7336 -9.66894 -4.34342e-05
rtoes -16.3643 0 0
lowerback -5.07069 -4.17281 -3.70408
upperback 0.386341 -5.40007 1.7798
thorax 3.75353 -2.77872 3.44557
lowerneck -22.5397 -2.78644 -9.96951
upperneck 24.5916 -3.26096 9.92539
head 12.1885 -1.0997 4.9182
lclavicle 3.13914e-15 -2.38542e-15 0
lhumerus -10.1257 -20.5551 84.0857
lradius 29.0509 -0 0
lwrist 6.60009 0 0
lhand -15.5745 -25.122 0.000642388
lfingers 7.12502 0 0
lthumb 10.6105 4.58973 0.0005574
rclavicle 3.13914e-15 -2.38542e-15 0
rhumerus -46.6415 9.83655 -86.2912
rradius 39.0495 -0 0
rwrist -20.4904 0 0
rhand -29.1564 -31.7926 -0.0611644
rfingers 7.12502 0 0
rthumb -2.50269 -61.7507 -0.059189
475
root 10.9082 17.3816 30.2428 3.96623 4.50989 3.0388
lfemur -2.11262 2.17883 -28.4682
ltibia 17.1781 0 0
lfoot -17.5169 3.91365 0
ltoes 4.80639 0 0
rfemur -35.5016 2.85703 14.9403
rtibia 40.5348 0 0
rfoot -19.7419 -9.54925 0
rtoes -16.5249 0 0
lowerback -5.07869 -4.20861 -3.64736
upperback 0.396839 -5.45011 1.75584
thorax 3.76602 -2.80249 3.38331
lowerneck -22.514 -2.77552 -9.93688
upperneck 24.6344 -3.25372 9.89448
head 12.198 -1.09836 4.90318
lclavicle 5.61567e-15 -2.38542e-15 0
lhumerus -9.72438 -20.7282 83.9197
lradius 29.4099 0 0
lwrist 6.90053 0 0
lhand -15.7448 -25.2085 0
lfingers 7.12502 0 0
lthumb 10.4463 4.51195 0
rclavicle 5.61567e-15 -2.38542e-15 0
rhumerus -46.8949 9.69762 -86.2426
rradius 39.1002 0 0
rwrist -20.6159 0 0
rhand -29.9559 -30.0434 0
rfingers 7.12502 0 0
rthumb -3.27484 -59.998 0
476
root 10.9066 17.3743 30.3773 4.01865 4.44875 3.12641
lfemur -0.873295 2.25802 -28.5008
ltibia 15.6621 -0 0
lfoot -17.2461 3.93017 0.000195271
ltoes 4.76453 -0 0
rfemur -35.9478 3.38424 14.6251
rtibia 39.2212 -0 0
rfoot -19.8322 -9.17626 -0.00146963
rtoes -15.773 0 0
lowerback -5.29517 -4.2528 -3.73267
upperback 0.506163 -5.49618 1.75127
thorax 4.01462 -2.83277 3.39929
lowerneck -22.6784 -2.71798 -9.87348
upperneck 24.6427 -3.18308 9.90796
head 12.2242 -1.05547 4.91189
lclavicle 2.87409e-15 6.62617e-16 0
lhumerus -9.40509 -20.8378 83.8171
lradius 29.759 -0 0
lwrist 7.06722 0 0
lhand -16.0396 -25.2262 0.000227452
lfingers 7.12502 0 0
lthumb 10.1619 4.50738 5.67741e-05
rclavicle 2.87409e-15 6.62617e-16 0
rhumerus -46.9352 9.63607 -86.1854
rradius 39.085 -0 0
rwrist -20.5413 0 0
rhand -30.3162 -29.0477 -0.0156659
rfingers 7.12502 0 0
rthumb -3.62279 -58.9952 -0.0152353
477
root 10.905 17.367 30.5117 4.07097 4.38753 3.21396
lfemur 0.366054 2.33789 -28.5317
ltibia 14.1461 -0 0
lfoot -16.9753 3.9467 0.000312436
ltoes 4.72267 -0 0
rfemur -36.3973 3.90897 14.3057
rtibia 37.9075 -0 0
rfoot -19.9225 -8.80327 -0.00235144
rtoes -15.0211 0 0
lowerback -5.51161 -4.29732 -3.81782
upperback 0.6155 -5.54224 1.74661
thorax 4.26322 -2.86313 3.41514
lowerneck -22.8428 -2.66027 -9.81024
upperneck 24.6511 -3.11244 9.92146
head 12.2504 -1.01259 4.92063
lclavicle 1.32513e-16 3.71065e-15 0
lhumerus -9.08536 -20.9468 83.7139
lradius 30.108 -0 0
lwrist 7.23392 0 0
lhand -16.3344 -25.2439 0.000363925
lfingers 7.12502 0 0
lthumb 9.87749 4.5028 9.08391e-05
rclavicle 1.32513e-16 3.71065e-15 0
rhumerus -46.9756 9.57456 -86.1282
rradius 39.0698 -0 0
rwrist -20.4667 0 0
rhand -30.6768 -28.052 -0.0250676
rfingers 7.12502 0 0
rthumb -3.97096 -57.9924 -0.0243786
478
root 10.9034 17.3598 30.6462 4.12319 4.32623 3.30144
lfemur 1.60543 2.41841 -28.5609
ltibia 12.63 -0 0
lfoot -16.7045 3.96322 0.000351491
ltoes 4.68081 -0 0
rfemur -36.8499 4.43117 13.9819
rtibia 36.5939 -0 0
rfoot -20.0128 -8.43029 -0.00264538
rtoes -14.2692 0 0
lowerback -5.72798 -4.34215 -3.9028
upperback 0.724848 -5.58829 1.74186
thorax 4.51182 -2.89355 3.43086
lowerneck -23.007 -2.60237 -9.74718
upperneck 24.6594 -3.0418 9.93496
head 12.2766 -0.969716 4.92938
lclavicle -2.60907e-15 6.75869e-15 0
lhumerus -8.76518 -21.0553 83.6099
lradius 30.4571 -0 0
lwrist 7.40061 0 0
lhand -16.6291 -25.2616 0.000409417
lfingers 7.12502 0 0
lthumb 9.59308 4.49822 0.000102194
rclavicle -2.60907e-15 6.75869e-15 0
rhumerus -47.0161 9.51309 -86.0709
rradius 39.0546 -0 0
rwrist -20.3921 0 0
rhand -31.0375 -27.0562 -0.0282018
rfingers 7.12502 0 0
rthumb -4.31924 -56.9895 -0.0274267
